<?xml version="1.0" encoding="UTF-8" standalone="no"?>
<!DOCTYPE svg PUBLIC "-//W3C//DTD SVG 1.1//EN" "http://www.w3.org/Graphics/SVG/1.1/DTD/svg11.dtd">
<svg width="100%" height="100%" viewBox="0 0 20 24" version="1.1" xmlns="http://www.w3.org/2000/svg" xmlns:xlink="http://www.w3.org/1999/xlink" xml:space="preserve" xmlns:serif="http://www.serif.com/" style="fill-rule:evenodd;clip-rule:evenodd;stroke-linejoin:round;stroke-miterlimit:1.41421;">
    <g transform="matrix(1,0,0,1,-34,-40)">
        <g id="Constraints">
            <path d="M44.129,42.001L44.258,42.003L44.386,42.007L44.514,42.013L44.642,42.02L44.769,42.029L44.896,42.04L45.022,42.052L45.148,42.065L45.273,42.08L45.398,42.097L45.522,42.115L45.646,42.135L45.769,42.156L45.892,42.179L46.014,42.203L46.136,42.229L46.257,42.256L46.378,42.285L46.498,42.315L46.617,42.347L46.736,42.38L46.855,42.414L46.972,42.45L47.089,42.487L47.206,42.526L47.322,42.566L47.437,42.607L47.551,42.65L47.665,42.694L47.778,42.74L47.891,42.786L48.003,42.834L48.114,42.884L48.224,42.935L48.334,42.987L48.443,43.04L48.551,43.095L48.658,43.151L48.765,43.208L48.871,43.266L48.976,43.326L49.08,43.387L49.184,43.449L49.286,43.512L49.388,43.576L49.489,43.642L49.589,43.709L49.689,43.777L49.787,43.846L49.885,43.916L49.982,43.988L50.077,44.06L50.172,44.134L50.266,44.209L50.359,44.285L50.452,44.362L50.543,44.44L50.633,44.519L50.722,44.599L50.811,44.68L50.898,44.763L50.984,44.846L51.07,44.93L51.154,45.016L51.237,45.102L51.32,45.189L51.401,45.278L51.481,45.367L51.56,45.457L51.638,45.548L51.715,45.641L51.791,45.734L51.866,45.828L51.94,45.923L52.012,46.018L52.084,46.115L52.154,46.213L52.223,46.311L52.291,46.411L52.358,46.511L52.424,46.612L52.488,46.714L52.551,46.816L52.613,46.92L52.674,47.024L52.734,47.129L52.792,47.235L52.849,47.342L52.905,47.449L52.96,47.557L53.013,47.666L53.065,47.776L53.116,47.886L53.166,47.997L53.214,48.109L53.26,48.222L53.306,48.335L53.35,48.449L53.393,48.563L53.434,48.678L53.474,48.794L53.513,48.911L53.55,49.028L53.586,49.145L53.62,49.264L53.653,49.383L53.685,49.502L53.715,49.622L53.744,49.743L53.771,49.864L53.797,49.986L53.821,50.108L53.844,50.231L53.865,50.354L53.885,50.478L53.903,50.602L53.92,50.727L53.935,50.852L53.948,50.978L53.96,51.104L53.971,51.231L53.98,51.358L53.987,51.486L53.993,51.614L53.997,51.742L53.999,51.871L54,52L53.999,52.129L53.997,52.258L53.993,52.386L53.987,52.514L53.98,52.642L53.971,52.769L53.96,52.896L53.948,53.022L53.935,53.148L53.92,53.273L53.903,53.398L53.885,53.522L53.865,53.646L53.844,53.769L53.821,53.892L53.797,54.014L53.771,54.136L53.744,54.257L53.715,54.378L53.685,54.498L53.653,54.617L53.62,54.736L53.586,54.855L53.55,54.972L53.513,55.089L53.474,55.206L53.434,55.322L53.393,55.437L53.35,55.551L53.306,55.665L53.26,55.778L53.214,55.891L53.166,56.003L53.116,56.114L53.065,56.224L53.013,56.334L52.96,56.443L52.905,56.551L52.849,56.658L52.792,56.765L52.734,56.871L52.674,56.976L52.613,57.08L52.551,57.184L52.488,57.286L52.424,57.388L52.358,57.489L52.291,57.589L52.223,57.689L52.154,57.787L52.084,57.885L52.012,57.982L51.94,58.077L51.866,58.172L51.791,58.266L51.715,58.359L51.638,58.452L51.56,58.543L51.481,58.633L51.401,58.722L51.32,58.811L51.237,58.898L51.154,58.984L51.07,59.07L50.984,59.154L50.898,59.237L50.811,59.32L50.722,59.401L50.633,59.481L50.543,59.56L50.452,59.638L50.359,59.715L50.266,59.791L50.172,59.866L50.077,59.94L49.982,60.012L49.885,60.084L49.787,60.154L49.689,60.223L49.589,60.291L49.489,60.358L49.388,60.424L49.286,60.488L49.184,60.551L49.08,60.613L48.976,60.674L48.871,60.734L48.765,60.792L48.658,60.849L48.551,60.905L48.443,60.96L48.334,61.013L48.224,61.065L48.114,61.116L48.003,61.166L47.891,61.214L47.778,61.26L47.665,61.306L47.551,61.35L47.437,61.393L47.322,61.434L47.206,61.474L47.089,61.513L46.972,61.55L46.855,61.586L46.736,61.62L46.617,61.653L46.498,61.685L46.378,61.715L46.257,61.744L46.136,61.771L46.014,61.797L45.892,61.821L45.769,61.844L45.646,61.865L45.522,61.885L45.398,61.903L45.273,61.92L45.148,61.935L45.022,61.948L44.896,61.96L44.769,61.971L44.642,61.98L44.514,61.987L44.386,61.993L44.258,61.997L44.129,61.999L44,62L43.871,61.999L43.742,61.997L43.614,61.993L43.486,61.987L43.358,61.98L43.231,61.971L43.104,61.96L42.978,61.948L42.852,61.935L42.727,61.92L42.602,61.903L42.478,61.885L42.354,61.865L42.231,61.844L42.108,61.821L41.986,61.797L41.864,61.771L41.743,61.744L41.622,61.715L41.502,61.685L41.383,61.653L41.264,61.62L41.145,61.586L41.028,61.55L40.911,61.513L40.794,61.474L40.678,61.434L40.563,61.393L40.449,61.35L40.335,61.306L40.222,61.26L40.109,61.214L39.997,61.166L39.886,61.116L39.776,61.065L39.666,61.013L39.557,60.96L39.449,60.905L39.342,60.849L39.235,60.792L39.129,60.734L39.024,60.674L38.92,60.613L38.816,60.551L38.714,60.488L38.612,60.424L38.511,60.358L38.411,60.291L38.311,60.223L38.213,60.154L38.115,60.084L38.018,60.012L37.923,59.94L37.828,59.866L37.734,59.791L37.641,59.715L37.548,59.638L37.457,59.56L37.367,59.481L37.278,59.401L37.189,59.32L37.102,59.237L37.016,59.154L36.93,59.07L36.846,58.984L36.763,58.898L36.68,58.811L36.599,58.722L36.519,58.633L36.44,58.543L36.362,58.452L36.285,58.359L36.209,58.266L36.134,58.172L36.06,58.077L35.988,57.982L35.916,57.885L35.846,57.787L35.777,57.689L35.709,57.589L35.642,57.489L35.576,57.388L35.512,57.286L35.449,57.184L35.387,57.08L35.326,56.976L35.266,56.871L35.208,56.765L35.151,56.658L35.095,56.551L35.04,56.443L34.987,56.334L34.935,56.224L34.884,56.114L34.834,56.003L34.786,55.891L34.74,55.778L34.694,55.665L34.65,55.551L34.607,55.437L34.566,55.322L34.526,55.206L34.487,55.089L34.45,54.972L34.414,54.855L34.38,54.736L34.347,54.617L34.315,54.498L34.285,54.378L34.256,54.257L34.229,54.136L34.203,54.014L34.179,53.892L34.156,53.769L34.135,53.646L34.115,53.522L34.097,53.398L34.08,53.273L34.065,53.148L34.052,53.022L34.04,52.896L34.029,52.769L34.02,52.642L34.013,52.514L34.007,52.386L34.003,52.258L34.001,52.129L34,52L34.001,51.871L34.003,51.742L34.007,51.614L34.013,51.486L34.02,51.358L34.029,51.231L34.04,51.104L34.052,50.978L34.065,50.852L34.08,50.727L34.097,50.602L34.115,50.478L34.135,50.354L34.156,50.231L34.179,50.108L34.203,49.986L34.229,49.864L34.256,49.743L34.285,49.622L34.315,49.502L34.347,49.383L34.38,49.264L34.414,49.145L34.45,49.028L34.487,48.911L34.526,48.794L34.566,48.678L34.607,48.563L34.65,48.449L34.694,48.335L34.74,48.222L34.786,48.109L34.834,47.997L34.884,47.886L34.935,47.776L34.987,47.666L35.04,47.557L35.095,47.449L35.151,47.342L35.208,47.235L35.266,47.129L35.326,47.024L35.387,46.92L35.449,46.816L35.512,46.714L35.576,46.612L35.642,46.511L35.709,46.411L35.777,46.311L35.846,46.213L35.916,46.115L35.988,46.018L36.06,45.923L36.134,45.828L36.209,45.734L36.285,45.641L36.362,45.548L36.44,45.457L36.519,45.367L36.599,45.278L36.68,45.189L36.763,45.102L36.846,45.016L36.93,44.93L37.016,44.846L37.102,44.763L37.189,44.68L37.278,44.599L37.367,44.519L37.457,44.44L37.548,44.362L37.641,44.285L37.734,44.209L37.828,44.134L37.923,44.06L38.018,43.988L38.115,43.916L38.213,43.846L38.311,43.777L38.411,43.709L38.511,43.642L38.612,43.576L38.714,43.512L38.816,43.449L38.92,43.387L39.024,43.326L39.129,43.266L39.235,43.208L39.342,43.151L39.449,43.095L39.557,43.04L39.666,42.987L39.776,42.935L39.886,42.884L39.997,42.834L40.109,42.786L40.222,42.74L40.335,42.694L40.449,42.65L40.563,42.607L40.678,42.566L40.794,42.526L40.911,42.487L41.028,42.45L41.145,42.414L41.264,42.38L41.383,42.347L41.502,42.315L41.622,42.285L41.743,42.256L41.864,42.229L41.986,42.203L42.108,42.179L42.231,42.156L42.354,42.135L42.478,42.115L42.602,42.097L42.727,42.08L42.852,42.065L42.978,42.052L43.104,42.04L43.231,42.029L43.358,42.02L43.486,42.013L43.614,42.007L43.742,42.003L43.871,42.001L44,42L44.129,42.001ZM43.896,44.001L43.793,44.003L43.69,44.006L43.587,44.01L43.485,44.016L43.383,44.023L43.282,44.032L43.18,44.041L43.08,44.052L42.98,44.064L42.88,44.078L42.78,44.092L42.681,44.108L42.583,44.125L42.485,44.143L42.387,44.163L42.29,44.183L42.193,44.205L42.097,44.228L42.001,44.252L41.906,44.277L41.811,44.303L41.716,44.331L41.622,44.36L41.529,44.389L41.436,44.42L41.343,44.452L41.251,44.485L41.16,44.519L41.069,44.555L40.979,44.591L40.889,44.628L40.799,44.667L40.711,44.706L40.622,44.747L40.535,44.788L40.448,44.831L40.361,44.875L40.275,44.919L40.19,44.965L40.105,45.012L40.021,45.059L39.938,45.108L39.855,45.158L39.773,45.208L39.691,45.26L39.611,45.312L39.53,45.366L39.451,45.42L39.372,45.476L39.294,45.532L39.216,45.589L39.14,45.647L39.064,45.706L38.988,45.766L38.914,45.827L38.84,45.889L38.767,45.951L38.695,46.015L38.623,46.079L38.552,46.144L38.482,46.21L38.413,46.277L38.345,46.345L38.277,46.413L38.21,46.482L38.144,46.552L38.079,46.623L38.015,46.695L37.951,46.767L37.889,46.84L37.827,46.914L37.766,46.988L37.706,47.064L37.647,47.14L37.589,47.216L37.532,47.294L37.476,47.372L37.42,47.451L37.366,47.53L37.312,47.611L37.26,47.691L37.208,47.773L37.158,47.855L37.108,47.938L37.059,48.021L37.012,48.105L36.965,48.19L36.919,48.275L36.875,48.361L36.831,48.448L36.788,48.535L36.747,48.622L36.706,48.711L36.667,48.799L36.628,48.889L36.591,48.979L36.555,49.069L36.519,49.16L36.485,49.251L36.452,49.343L36.42,49.436L36.389,49.529L36.36,49.622L36.331,49.716L36.303,49.811L36.277,49.906L36.252,50.001L36.228,50.097L36.205,50.193L36.183,50.29L36.163,50.387L36.143,50.485L36.125,50.583L36.108,50.681L36.092,50.78L36.078,50.88L36.064,50.98L36.052,51.08L36.041,51.18L36.032,51.282L36.023,51.383L36.016,51.485L36.01,51.587L36.006,51.69L36.003,51.793L36.001,51.896L36,52L36.001,52.104L36.003,52.207L36.006,52.31L36.01,52.413L36.016,52.515L36.023,52.617L36.032,52.718L36.041,52.82L36.052,52.92L36.064,53.02L36.078,53.12L36.092,53.22L36.108,53.319L36.125,53.417L36.143,53.515L36.163,53.613L36.183,53.71L36.205,53.807L36.228,53.903L36.252,53.999L36.277,54.094L36.303,54.189L36.331,54.284L36.36,54.378L36.389,54.471L36.42,54.564L36.452,54.657L36.485,54.749L36.519,54.84L36.555,54.931L36.591,55.021L36.628,55.111L36.667,55.201L36.706,55.289L36.747,55.378L36.788,55.465L36.831,55.552L36.875,55.639L36.919,55.725L36.965,55.81L37.012,55.895L37.059,55.979L37.108,56.062L37.158,56.145L37.208,56.227L37.26,56.309L37.312,56.389L37.366,56.47L37.42,56.549L37.476,56.628L37.532,56.706L37.589,56.784L37.647,56.86L37.706,56.936L37.766,57.012L37.827,57.086L37.889,57.16L37.951,57.233L38.015,57.305L38.079,57.377L38.144,57.448L38.21,57.518L38.277,57.587L38.345,57.655L38.413,57.723L38.482,57.79L38.552,57.856L38.623,57.921L38.695,57.985L38.767,58.049L38.84,58.111L38.914,58.173L38.988,58.234L39.064,58.294L39.14,58.353L39.216,58.411L39.294,58.468L39.372,58.524L39.451,58.58L39.53,58.634L39.611,58.688L39.691,58.74L39.773,58.792L39.855,58.842L39.938,58.892L40.021,58.941L40.105,58.988L40.19,59.035L40.275,59.081L40.361,59.125L40.448,59.169L40.535,59.212L40.622,59.253L40.711,59.294L40.799,59.333L40.889,59.372L40.979,59.409L41.069,59.445L41.16,59.481L41.251,59.515L41.343,59.548L41.436,59.58L41.529,59.611L41.622,59.64L41.716,59.669L41.811,59.697L41.906,59.723L42.001,59.748L42.097,59.772L42.193,59.795L42.29,59.817L42.387,59.837L42.485,59.857L42.583,59.875L42.681,59.892L42.78,59.908L42.88,59.922L42.98,59.936L43.08,59.948L43.18,59.959L43.282,59.968L43.383,59.977L43.485,59.984L43.587,59.99L43.69,59.994L43.793,59.997L43.896,59.999L44,60L44.104,59.999L44.207,59.997L44.31,59.994L44.413,59.99L44.515,59.984L44.617,59.977L44.718,59.968L44.82,59.959L44.92,59.948L45.02,59.936L45.12,59.922L45.22,59.908L45.319,59.892L45.417,59.875L45.515,59.857L45.613,59.837L45.71,59.817L45.807,59.795L45.903,59.772L45.999,59.748L46.094,59.723L46.189,59.697L46.284,59.669L46.378,59.64L46.471,59.611L46.564,59.58L46.657,59.548L46.749,59.515L46.84,59.481L46.931,59.445L47.021,59.409L47.111,59.372L47.201,59.333L47.289,59.294L47.378,59.253L47.465,59.212L47.552,59.169L47.639,59.125L47.725,59.081L47.81,59.035L47.895,58.988L47.979,58.941L48.062,58.892L48.145,58.842L48.227,58.792L48.309,58.74L48.389,58.688L48.47,58.634L48.549,58.58L48.628,58.524L48.706,58.468L48.784,58.411L48.86,58.353L48.936,58.294L49.012,58.234L49.086,58.173L49.16,58.111L49.233,58.049L49.305,57.985L49.377,57.921L49.448,57.856L49.518,57.79L49.587,57.723L49.655,57.655L49.723,57.587L49.79,57.518L49.856,57.448L49.921,57.377L49.985,57.305L50.049,57.233L50.111,57.16L50.173,57.086L50.234,57.012L50.294,56.936L50.353,56.86L50.411,56.784L50.468,56.706L50.524,56.628L50.58,56.549L50.634,56.47L50.688,56.389L50.74,56.309L50.792,56.227L50.842,56.145L50.892,56.062L50.941,55.979L50.988,55.895L51.035,55.81L51.081,55.725L51.125,55.639L51.169,55.552L51.212,55.465L51.253,55.378L51.294,55.289L51.333,55.201L51.372,55.111L51.409,55.021L51.445,54.931L51.481,54.84L51.515,54.749L51.548,54.657L51.58,54.564L51.611,54.471L51.64,54.378L51.669,54.284L51.697,54.189L51.723,54.094L51.748,53.999L51.772,53.903L51.795,53.807L51.817,53.71L51.837,53.613L51.857,53.515L51.875,53.417L51.892,53.319L51.908,53.22L51.922,53.12L51.936,53.02L51.948,52.92L51.959,52.82L51.968,52.718L51.977,52.617L51.984,52.515L51.99,52.413L51.994,52.31L51.997,52.207L51.999,52.104L52,52L51.999,51.896L51.997,51.793L51.994,51.69L51.99,51.587L51.984,51.485L51.977,51.383L51.968,51.282L51.959,51.18L51.948,51.08L51.936,50.98L51.922,50.88L51.908,50.78L51.892,50.681L51.875,50.583L51.857,50.485L51.837,50.387L51.817,50.29L51.795,50.193L51.772,50.097L51.748,50.001L51.723,49.906L51.697,49.811L51.669,49.716L51.64,49.622L51.611,49.529L51.58,49.436L51.548,49.343L51.515,49.251L51.481,49.16L51.445,49.069L51.409,48.979L51.372,48.889L51.333,48.799L51.294,48.711L51.253,48.622L51.212,48.535L51.169,48.448L51.125,48.361L51.081,48.275L51.035,48.19L50.988,48.105L50.941,48.021L50.892,47.938L50.842,47.855L50.792,47.773L50.74,47.691L50.688,47.611L50.634,47.53L50.58,47.451L50.524,47.372L50.468,47.294L50.411,47.216L50.353,47.14L50.294,47.064L50.234,46.988L50.173,46.914L50.111,46.84L50.049,46.767L49.985,46.695L49.921,46.623L49.856,46.552L49.79,46.482L49.723,46.413L49.655,46.345L49.587,46.277L49.518,46.21L49.448,46.144L49.377,46.079L49.305,46.015L49.233,45.951L49.16,45.889L49.086,45.827L49.012,45.766L48.936,45.706L48.86,45.647L48.784,45.589L48.706,45.532L48.628,45.476L48.549,45.42L48.47,45.366L48.389,45.312L48.309,45.26L48.227,45.208L48.145,45.158L48.062,45.108L47.979,45.059L47.895,45.012L47.81,44.965L47.725,44.919L47.639,44.875L47.552,44.831L47.465,44.788L47.378,44.747L47.289,44.706L47.201,44.667L47.111,44.628L47.021,44.591L46.931,44.555L46.84,44.519L46.749,44.485L46.657,44.452L46.564,44.42L46.471,44.389L46.378,44.36L46.284,44.331L46.189,44.303L46.094,44.277L45.999,44.252L45.903,44.228L45.807,44.205L45.71,44.183L45.613,44.163L45.515,44.143L45.417,44.125L45.319,44.108L45.22,44.092L45.12,44.078L45.02,44.064L44.92,44.052L44.82,44.041L44.718,44.032L44.617,44.023L44.515,44.016L44.413,44.01L44.31,44.006L44.207,44.003L44.104,44.001L44,44L43.896,44.001Z" style="fill:rgb(116,121,127);"/>
            <g>
                <path d="M44,50.586L47.414,47.172C47.804,46.781 48.438,46.781 48.828,47.172C49.219,47.562 49.219,48.196 48.828,48.586C48.828,48.586 46.046,51.36 44.705,52.697C44.315,53.086 43.684,53.086 43.294,52.698C42.474,51.882 41.232,50.646 41.232,50.646C40.842,50.256 40.842,49.622 41.232,49.232C41.622,48.842 42.256,48.842 42.646,49.232L44,50.586Z" style="fill:rgb(116,121,127);"/>
                <path d="M48.169,46.88L48.217,46.883L48.265,46.889L48.312,46.897L48.359,46.907L48.406,46.92L48.452,46.935L48.498,46.952L48.542,46.971L48.586,46.993L48.63,47.017L48.672,47.044L48.713,47.072L48.753,47.103L48.791,47.136L48.828,47.172L48.864,47.209L48.897,47.247L48.928,47.287L48.956,47.328L48.983,47.37L49.007,47.414L49.029,47.458L49.048,47.502L49.065,47.548L49.08,47.594L49.093,47.641L49.103,47.688L49.111,47.735L49.117,47.783L49.12,47.831L49.121,47.879L49.12,47.927L49.117,47.975L49.111,48.022L49.103,48.07L49.093,48.117L49.08,48.163L49.065,48.21L49.048,48.255L49.029,48.3L49.007,48.344L48.983,48.387L48.956,48.429L48.928,48.47L48.897,48.51L48.864,48.549L48.828,48.586L44.705,52.697L44.668,52.732L44.629,52.765L44.59,52.796L44.549,52.824L44.507,52.851L44.464,52.875L44.42,52.896L44.375,52.916L44.33,52.933L44.284,52.947L44.237,52.96L44.19,52.97L44.143,52.978L44.095,52.984L44.048,52.987L44,52.989L43.952,52.988L43.904,52.984L43.857,52.978L43.809,52.971L43.762,52.96L43.716,52.948L43.67,52.933L43.624,52.916L43.58,52.897L43.536,52.875L43.493,52.851L43.451,52.825L43.41,52.797L43.37,52.766L43.331,52.733L43.294,52.698L41.232,50.646L41.197,50.609L41.164,50.571L41.133,50.531L41.104,50.49L41.078,50.448L41.054,50.404L41.032,50.36L41.013,50.316L40.996,50.27L40.981,50.224L40.968,50.177L40.958,50.13L40.95,50.083L40.944,50.035L40.941,49.987L40.94,49.939L40.941,49.891L40.944,49.843L40.95,49.796L40.958,49.748L40.968,49.701L40.981,49.655L40.996,49.608L41.013,49.563L41.032,49.518L41.054,49.474L41.078,49.431L41.104,49.389L41.133,49.348L41.164,49.308L41.197,49.27L41.232,49.232L41.27,49.197L41.308,49.164L41.348,49.133L41.389,49.104L41.431,49.078L41.474,49.054L41.518,49.032L41.563,49.013L41.608,48.996L41.655,48.981L41.701,48.968L41.748,48.958L41.796,48.95L41.843,48.944L41.891,48.941L41.939,48.94L41.987,48.941L42.035,48.944L42.083,48.95L42.13,48.958L42.177,48.968L42.224,48.981L42.27,48.996L42.316,49.013L42.36,49.032L42.404,49.054L42.448,49.078L42.49,49.104L42.531,49.133L42.571,49.164L42.609,49.197L42.646,49.232L44,50.586L47.414,47.172L47.451,47.136L47.49,47.103L47.53,47.072L47.571,47.044L47.613,47.017L47.656,46.993L47.7,46.971L47.745,46.952L47.79,46.935L47.837,46.92L47.883,46.907L47.93,46.897L47.978,46.889L48.025,46.883L48.073,46.88L48.121,46.879L48.169,46.88Z" style="fill:rgb(116,121,127);"/>
            </g>
        </g>
    </g>
</svg>
