<?xml version="1.0" encoding="UTF-8" standalone="no"?>
<!DOCTYPE svg PUBLIC "-//W3C//DTD SVG 1.1//EN" "http://www.w3.org/Graphics/SVG/1.1/DTD/svg11.dtd">
<svg width="100%" height="100%" viewBox="0 0 20 24" version="1.1" xmlns="http://www.w3.org/2000/svg" xmlns:xlink="http://www.w3.org/1999/xlink" xml:space="preserve" xmlns:serif="http://www.serif.com/" style="fill-rule:evenodd;clip-rule:evenodd;stroke-linejoin:round;stroke-miterlimit:1.41421;">
    <g transform="matrix(1,0,0,1,-34,-8)">
        <g id="ALAP">
            <path d="M34,17L34,23L42,23C42,23 42,24.308 42,25.586C42,25.99 42.244,26.355 42.617,26.51C42.991,26.664 43.421,26.579 43.707,26.293C45.444,24.556 48.051,21.949 49.293,20.707C49.48,20.52 49.586,20.265 49.586,20C49.586,19.735 49.48,19.48 49.293,19.293C48.051,18.051 45.444,15.444 43.707,13.707C43.421,13.421 42.991,13.336 42.617,13.49C42.244,13.645 42,14.01 42,14.414C42,15.692 42,17 42,17L34,17Z" style="fill:rgb(116,121,127);"/>
            <path d="M54,11C54,10.735 53.895,10.48 53.707,10.293C53.52,10.105 53.265,10 53,10C52.735,10 52.48,10.105 52.293,10.293C52.105,10.48 52,10.735 52,11C52,14.414 52,25.586 52,29C52,29.265 52.105,29.52 52.293,29.707C52.48,29.895 52.735,30 53,30C53.265,30 53.52,29.895 53.707,29.707C53.895,29.52 54,29.265 54,29C54,25.586 54,14.414 54,11Z" style="fill:rgb(116,121,127);"/>
        </g>
    </g>
</svg>
