<?xml version="1.0" encoding="UTF-8" standalone="no"?>
<!DOCTYPE svg PUBLIC "-//W3C//DTD SVG 1.1//EN" "http://www.w3.org/Graphics/SVG/1.1/DTD/svg11.dtd">
<svg width="100%" height="100%" viewBox="0 0 20 24" version="1.1" xmlns="http://www.w3.org/2000/svg" xmlns:xlink="http://www.w3.org/1999/xlink" xml:space="preserve" xmlns:serif="http://www.serif.com/" style="fill-rule:evenodd;clip-rule:evenodd;stroke-linejoin:round;stroke-miterlimit:1.41421;">
    <g transform="matrix(1,0,0,1,-66,-8)">
        <g id="Description" transform="matrix(0.578947,0,0,0.578947,30.1053,-160.709)">
            <g id="Description1" serif:id="Description" transform="matrix(1,0,0,1,7.10543e-15,112)">
                <path d="M62,217.407L67.182,207.044L72.364,212.225L62,217.407Z" style="fill:rgb(116,121,127);"/>
                <path d="M68.909,205.316L84.455,189.771L89.636,194.953L74.091,210.498L68.909,205.316Z" style="fill:rgb(116,121,127);"/>
                <path d="M87.909,186.316L88.774,185.451C90.204,184.021 92.523,184.021 93.953,185.451C93.954,185.452 93.955,185.453 93.956,185.454C95.386,186.884 95.386,189.203 93.956,190.633C92.66,191.929 91.364,193.225 91.364,193.225L86.182,188.044L86.182,188.043C85.724,187.585 85.102,187.328 84.455,187.328C83.807,187.328 83.186,187.585 82.728,188.043C82.727,188.044 82.727,188.044 82.727,188.044C82.727,188.044 78.535,192.236 76.682,194.089C76.205,194.566 75.432,194.566 74.955,194.089C74.955,194.089 74.954,194.089 74.954,194.089C74.478,193.612 74.478,192.839 74.954,192.362C76.808,190.509 81,186.316 81,186.316C81,186.316 81,186.316 81.001,186.316C81.917,185.4 83.159,184.885 84.455,184.885C85.75,184.885 86.993,185.4 87.909,186.316L87.909,186.316Z" style="fill:rgb(116,121,127);"/>
            </g>
            <path d="M79.273,294.862L77.545,296.589C77.545,296.589 69.161,296.589 65.455,296.589C64.501,296.589 63.727,297.362 63.727,298.316C63.727,303.577 63.727,319.044 63.727,319.044L62,321.727C62,321.727 62,305.571 62,298.316C62,297.4 62.364,296.521 63.012,295.874C63.66,295.226 64.538,294.862 65.455,294.862C70.495,294.862 79.273,294.862 79.273,294.862Z" style="fill:rgb(116,121,127);"/>
            <path d="M70.636,329.407L72.364,327.68C72.364,327.68 87.83,327.68 93.091,327.68C93.549,327.68 93.988,327.498 94.312,327.174C94.636,326.85 94.818,326.411 94.818,325.953C94.818,320.975 94.818,306.953 94.818,306.953L96.545,305.225C96.545,305.225 96.545,319.27 96.545,325.953C96.545,327.861 94.999,329.407 93.091,329.407C87.634,329.407 77.632,329.407 77.632,329.407L70.636,329.407Z" style="fill:rgb(116,121,127);"/>
        </g>
    </g>
</svg>
