<?xml version="1.0" encoding="UTF-8" standalone="no"?>
<!DOCTYPE svg PUBLIC "-//W3C//DTD SVG 1.1//EN" "http://www.w3.org/Graphics/SVG/1.1/DTD/svg11.dtd">
<svg width="100%" height="100%" viewBox="0 0 20 24" version="1.1" xmlns="http://www.w3.org/2000/svg" xmlns:xlink="http://www.w3.org/1999/xlink" xml:space="preserve" xmlns:serif="http://www.serif.com/" style="fill-rule:evenodd;clip-rule:evenodd;stroke-linejoin:round;stroke-miterlimit:1.41421;">
    <g transform="matrix(1,0,0,1,-34,-72)">
        <g id="Project">
            <g transform="matrix(1,0,0,1.4,0,-34.8)">
                <path d="M34,91.286C34,91.68 34.448,92 35,92C38.414,92 49.586,92 53,92C53.552,92 54,91.68 54,91.286C54,88.998 54,82 54,82L34,82C34,82 34,88.998 34,91.286Z" style="fill:rgb(116,121,127);"/>
            </g>
            <g transform="matrix(1.25,0,0,1,-11,-2)">
                <path d="M36,80L52,80C52,80 52,79.5 52,79C52,78.448 51.642,78 51.2,78C49.174,78 44,78 44,78C44,78 44,78 44,78C44,76.895 43.284,76 42.4,76C41.006,76 38.994,76 37.6,76C37.176,76 36.769,76.211 36.469,76.586C36.169,76.961 36,77.47 36,78C36,79 36,80 36,80Z" style="fill:rgb(116,121,127);"/>
            </g>
        </g>
    </g>
</svg>
